# xmcd
#
# Track frame offsets:
# 150
# 14644
# 38024
# 55452
# 88569
# 118187
# 143234
# 159217
# 182883
# 200360
# 209239
# 231284
#
# Disc length: 3238 seconds
#
#
# Revision: 2
# Processed by: cddbd v1.5.1PL2 Copyright (c) Steve Scherf et al.
# Submitted via: FreeRIP 2.941 
#
DISCID=ae0ca40c
DTITLE=Terence Blanchard - Flow
DYEAR=2005
DGENRE=Jazz
TTITLE0=Flow, Part 1
TTITLE1=Wadagbe (Intro)
TTITLE2=Wadagbe
TTITLE3=Benny's Tune
TTITLE4=Wandering Wonder
TTITLE5=Flow, Part II
TTITLE6=The Source
TTITLE7=Over There
TTITLE8=Child's Play
TTITLE9=Flow, Part III
TTITLE10=Harvesting Dance
TTITLE11=
EXTD=YEAR: 2005
EXTT0=
EXTT1=
EXTT2=
EXTT3=
EXTT4=
EXTT5=
EXTT6=
EXTT7=
EXTT8=
EXTT9=
EXTT10=
EXTT11=
PLAYORDER=
